<svg width="196" height="24" viewBox="0 0 196 24" fill="none" xmlns="http://www.w3.org/2000/svg">
<g clip-path="url(#clip0_14620_85361)">
<path d="M18.3002 0.949219V3.73713C18.3002 4.10813 15.2949 4.21725 14.7917 4.41502C14.4612 4.54459 13.8502 5.16928 13.8502 5.50618V9.79035H27.2678C27.2826 9.79035 27.4701 9.60076 27.4701 9.58576V6.0504C27.4701 5.92628 27.2233 5.18838 27.141 5.02198C26.5947 3.90627 24.1208 4.19815 23.0187 3.94309V0.949219H40.6841V3.94173C38.4665 4.46003 36.4498 3.44116 36.2286 6.4514C36.0074 9.45345 35.975 14.7715 36.2286 17.7504C36.4822 20.7292 38.6081 19.5822 40.6841 20.125V23.2525H23.0187V20.125C24.0237 19.8058 26.677 20.1141 27.1693 19.0748C27.2219 18.9643 27.4688 18.0818 27.4688 18.0163V14.2764H13.8488V18.697C13.8488 18.7365 14.182 19.3066 14.2495 19.3803C14.9334 20.1168 18.2989 19.9791 18.2989 20.3282V23.048C18.2989 23.063 18.1114 23.2525 18.0965 23.2525H0.702337C0.687499 23.2525 0.5 23.063 0.5 23.048V20.1236C1.90691 19.8631 4.4685 20.3923 4.85833 18.6028C4.80303 14.601 5.24817 10.1545 4.9568 6.17861C4.76121 3.51618 2.39792 4.4232 0.5 3.94036V0.949219H18.3002Z" fill="#EC1C31"/>
<path d="M107.709 17.2689V5.64121C107.709 5.55801 107.399 4.93741 107.307 4.82148C106.651 3.99219 104.28 4.1395 103.257 3.94036V0.949219H117.417V3.94173C116.47 4.20906 114.157 3.99356 113.502 4.68645C113.435 4.75737 113.102 5.33023 113.102 5.36979V23.0493C113.102 23.0643 112.914 23.2539 112.899 23.2539H101.841C101.175 23.2539 100.286 22.6265 99.8892 22.0932C96.0367 16.9866 92.2786 11.7858 88.2872 6.79784V18.0177C88.2872 18.0736 88.4828 18.9043 88.5232 19.0038C89.0048 20.1864 91.6567 19.9736 92.7372 20.1264V23.2539H78.78C78.7652 23.2539 78.5777 23.0643 78.5777 23.0493V20.3296C78.5777 20.2314 78.803 20.1482 78.9163 20.1264C80.9612 19.7513 82.8173 20.5192 83.0332 17.7504C83.2733 14.6569 83.2463 9.56257 83.0332 6.4514C82.8268 3.41524 80.8263 4.48049 78.5764 3.94173V0.949219H94.9616C95.0479 0.949219 95.6091 1.41433 95.7709 1.49344L107.706 17.2689H107.709Z" fill="#EC1C31"/>
<path d="M119.307 23.1162V20.2601C121.292 19.6709 123.258 20.6284 123.492 17.8855C123.753 14.8302 123.704 9.54083 123.494 6.45012C123.293 3.49307 121.565 4.37146 119.307 3.94045V0.949303L143.383 0.943848C150.545 1.43487 156.601 5.69176 155.431 13.6491C154.351 20.9844 147.786 22.9853 141.36 23.2595C136.09 23.4845 130.704 23.2076 125.447 23.1121C123.402 23.0753 121.349 23.1517 119.305 23.1176L119.307 23.1162ZM132.117 18.9003C135.363 18.607 141.902 19.8769 144.175 16.9839C145.741 14.9912 145.749 9.7086 144.498 7.57129C142.412 4.01137 135.565 5.4899 132.119 5.16391V18.9003H132.117Z" fill="#EC1C31"/>
<path d="M58.0554 0.0368844C66.7194 -0.335474 78.6047 1.97506 77.62 13.2386C76.6677 24.1284 61.398 24.8567 53.3355 23.4846C46.3859 22.302 40.564 18.1706 41.6472 10.2802C42.7412 2.30377 51.3337 0.326042 58.0554 0.0368844ZM58.0554 4.38925C52.9228 4.85027 51.4093 8.31334 51.7384 13.1254C52.1094 18.5348 55.8081 20.0501 60.71 19.7146C65.1979 19.4077 67.3224 17.0863 67.5207 12.5743C67.8094 6.02054 64.1201 3.84367 58.0554 4.38789V4.38925Z" fill="#EC1C31"/>
<path d="M195.5 20.125V23.2526H176.486V20.125C177.514 19.874 180.599 20.1768 180.392 18.5742C180.334 18.1255 179.198 16.1723 178.583 16.31L165.651 16.3387C165.454 16.4042 164.223 18.5251 164.228 18.8361C164.247 20.0595 167.119 19.9954 167.99 20.125V23.0493C167.99 23.0643 167.803 23.2539 167.788 23.2539H153.831V20.1264C155.275 19.8945 157.172 20.2546 158.146 18.9697L165.974 6.05722C166.814 3.6553 162.434 4.39183 161.112 3.94173V0.949219H178.845C179.219 0.949219 179.997 1.95309 180.236 2.2668C184.094 7.33251 187.121 13.6299 190.98 18.7665C192.006 20.2369 193.965 19.7377 195.499 20.125H195.5ZM176.484 12.3723L172.237 5.71077L168.124 12.3723H176.484Z" fill="#EC1C31"/>
</g>
<defs>
<clipPath id="clip0_14620_85361">
<rect width="195" height="24" fill="white" transform="translate(0.5)"/>
</clipPath>
</defs>
</svg>
